<svg xmlns="http://www.w3.org/2000/svg" width="1160" height="710" viewBox="0 0 1160 710" font-family="Arial, Helvetica, sans-serif">
  <rect width="1160" height="710" fill="white"/>

  <!-- ===== Title block ===== -->
  <text x="30" y="34" font-size="22" font-weight="bold" fill="#1b2a36">Aegis-40 — Site Plot Plan</text>
  <text x="30" y="52" font-size="13" fill="#55606a">FER §8.10 R3 (facility layout) + R6 (critical piping). Scale 1:333 (3 px/m). North up.</text>
  <text x="30" y="68" font-size="11" fill="#9a6700">All footprints from layout/building_list.md · piping routes [ASSUMED] pending Adilbek NPS · 2026-06-08</text>

  <!-- ===== Scaled drawing group: 1 user-unit = 1 m, scale(3) ===== -->
  <g transform="translate(-10,64) scale(3)">

    <!-- Island envelopes (dashed) -->
    <rect x="20" y="10" width="80" height="80" fill="#fff8ec" stroke="#9a6700" stroke-width="1.2" stroke-dasharray="4 3" vector-effect="non-scaling-stroke"/>
    <rect x="20" y="110" width="100" height="80" fill="#eef6fb" stroke="#1b4965" stroke-width="1.2" stroke-dasharray="4 3" vector-effect="non-scaling-stroke"/>
    <rect x="220" y="118" width="60" height="68" fill="#f0faf2" stroke="#2d6a4f" stroke-width="1.2" stroke-dasharray="4 3" vector-effect="non-scaling-stroke"/>

    <!-- Island captions -->
    <text x="22" y="7.5" font-size="4" font-weight="bold" fill="#9a6700">CONVENTIONAL ISLAND (Cat II)</text>
    <text x="22" y="107.5" font-size="4" font-weight="bold" fill="#1b4965">NUCLEAR ISLAND (Seismic Cat I)</text>
    <text x="220" y="115.5" font-size="4" font-weight="bold" fill="#2d6a4f">INDUSTRIAL ISLAND (non-safety)</text>

    <!-- ===== Conventional Island buildings (amber) ===== -->
    <g fill="#ffe8b3" stroke="#9a6700" stroke-width="1.5" vector-effect="non-scaling-stroke">
      <rect x="22" y="16" width="30" height="20"/>
      <rect x="56" y="14" width="40" height="28"/>
      <rect x="24" y="42" width="15" height="10"/>
      <rect x="55" y="50" width="30" height="30"/>
      <rect x="24" y="58" width="20" height="15"/>
    </g>
    <g font-size="3.6" fill="#5c3d00" text-anchor="middle">
      <text x="37" y="27.5">TB</text>
      <text x="76" y="29">EHB yard</text>
      <text x="31.5" y="48">EHB</text>
      <text x="70" y="66">CTW</text>
      <text x="34" y="67">WSB</text>
    </g>

    <!-- ===== Nuclear Island buildings (blue) ===== -->
    <g fill="#cfe8ff" stroke="#1b4965" stroke-width="1.5" vector-effect="non-scaling-stroke">
      <rect x="80" y="138" width="25" height="20"/>
      <rect x="24" y="120" width="30" height="25"/>
      <rect x="34" y="150" width="20" height="15"/>
      <rect x="100" y="165" width="15" height="10"/>
      <rect x="24" y="168" width="25" height="15"/>
    </g>
    <!-- RXB highlighted (reactor) with containment circle -->
    <rect x="55" y="135" width="25" height="25" fill="#aad4f5" stroke="#0d3550" stroke-width="2" vector-effect="non-scaling-stroke"/>
    <circle cx="67.5" cy="147.5" r="7.5" fill="none" stroke="#0d3550" stroke-width="1.2" stroke-dasharray="2 1.5" vector-effect="non-scaling-stroke"/>
    <circle cx="67.5" cy="147.5" r="1.22" fill="#0d3550"/>
    <g font-size="3.6" fill="#0d3550" text-anchor="middle">
      <text x="67.5" y="133">RXB</text>
      <text x="92.5" y="149">AB</text>
      <text x="39" y="133.5">CB</text>
      <text x="44" y="158.5">SFB</text>
      <text x="107.5" y="171">DGB</text>
      <text x="36.5" y="176.5">WMB</text>
    </g>
    <!-- off-gas stack marker on WMB -->
    <circle cx="46" cy="170" r="1" fill="#0d3550"/>
    <text x="48" y="171" font-size="2.6" fill="#0d3550">off-gas stack ≥30 m</text>

    <!-- ===== Industrial Island buildings (green) ===== -->
    <g fill="#d8f3dc" stroke="#2d6a4f" stroke-width="1.5" vector-effect="non-scaling-stroke">
      <rect x="224" y="124" width="30" height="30"/>
      <rect x="224" y="156" width="25" height="25"/>
    </g>
    <!-- H2 storage with hazard hatch -->
    <rect x="256" y="140" width="20" height="30" fill="#ffdede" stroke="#b3261e" stroke-width="1.5" vector-effect="non-scaling-stroke"/>
    <path d="M256,140 L276,170 M256,155 L271,170 M256,170 L256,170 M261,140 L276,160" stroke="#b3261e" stroke-width="0.6" vector-effect="non-scaling-stroke" opacity="0.5"/>
    <g font-size="3.6" fill="#1d4634" text-anchor="middle">
      <text x="239" y="140">TES</text>
      <text x="236.5" y="169">SOE</text>
    </g>
    <text x="266" y="156" font-size="3.4" fill="#b3261e" text-anchor="middle">H₂S</text>

    <!-- ===== Critical piping [ASSUMED] — R6 ===== -->
    <!-- pipe-rack corridor in the 20 m NI↔CI gap -->
    <rect x="40" y="90" width="45" height="20" fill="#fbe9d0" stroke="#c2783a" stroke-width="0.8" stroke-dasharray="3 2" vector-effect="non-scaling-stroke" opacity="0.7"/>
    <!-- main steam (CI->NI) -->
    <path d="M45,42 L45,90 L45,110 L60,135" fill="none" stroke="#c0392b" stroke-width="2" vector-effect="non-scaling-stroke"/>
    <!-- feedwater (NI->CI) -->
    <path d="M70,135 L70,110 L70,90 L70,42" fill="none" stroke="#2471a3" stroke-width="2" vector-effect="non-scaling-stroke"/>
    <text x="62" y="101" font-size="2.8" fill="#7a3b13" text-anchor="middle">rack [ASSUMED]</text>
    <!-- process steam NI -> II HX -->
    <path d="M105,148 L224,140" fill="none" stroke="#7d3c98" stroke-width="1.8" stroke-dasharray="5 3" vector-effect="non-scaling-stroke"/>
    <text x="165" y="142" font-size="3" fill="#5b2c6f" text-anchor="middle">process steam → TES HX</text>
    <!-- internal surge/RHR note -->
    <text x="67.5" y="164" font-size="2.6" fill="#0d3550" text-anchor="middle">surge + RHR internal [ASSUMED]</text>

    <!-- ===== H2 stand-off (NFPA 2) ===== -->
    <line x1="120" y1="112" x2="220" y2="112" stroke="#b3261e" stroke-width="1.2" stroke-dasharray="2 2" vector-effect="non-scaling-stroke"/>
    <path d="M120,110 l4,2 l-4,2 M220,110 l-4,2 l4,2" fill="#b3261e"/>
    <text x="170" y="109" font-size="3.4" fill="#b3261e" text-anchor="middle" font-weight="bold">100 m H₂ stand-off (NFPA 2)</text>

    <!-- ===== EPZ direction marker (points toward inset, clear of legend) ===== -->
    <text x="250" y="192" font-size="3" fill="#2d6a4f">EPZ boundary R = 500 m → see inset below-left</text>
  </g>

  <!-- ===== North arrow ===== -->
  <g transform="translate(790,130)">
    <circle r="22" fill="white" stroke="#1b2a36" stroke-width="1"/>
    <path d="M0,-18 L6,8 L0,2 L-6,8 Z" fill="#1b2a36"/>
    <text x="0" y="-22" font-size="11" font-weight="bold" text-anchor="middle" fill="#1b2a36">N</text>
  </g>

  <!-- ===== Scale bar (50 m = 150 px) ===== -->
  <g transform="translate(40,660)">
    <rect x="0" y="0" width="75" height="8" fill="#1b2a36"/>
    <rect x="75" y="0" width="75" height="8" fill="white" stroke="#1b2a36" stroke-width="1"/>
    <text x="0" y="24" font-size="11" fill="#1b2a36">0</text>
    <text x="68" y="24" font-size="11" fill="#1b2a36">25</text>
    <text x="140" y="24" font-size="11" fill="#1b2a36">50 m</text>
  </g>

  <!-- ===== EPZ locator inset ===== -->
  <g transform="translate(250,610)">
    <text x="0" y="-8" font-size="11" font-weight="bold" fill="#2d6a4f">EPZ locator (not to main scale)</text>
    <circle cx="45" cy="30" r="40" fill="#f0faf2" stroke="#2d6a4f" stroke-width="1.5" stroke-dasharray="4 3"/>
    <rect x="38" y="24" width="14" height="11" fill="#aad4f5" stroke="#0d3550" stroke-width="1"/>
    <text x="45" y="32" font-size="6" text-anchor="middle" fill="#0d3550">site</text>
    <line x1="45" y1="30" x2="85" y2="30" stroke="#2d6a4f" stroke-width="1"/>
    <text x="62" y="27" font-size="9" fill="#2d6a4f">500 m</text>
    <text x="0" y="84" font-size="9" fill="#55606a">Developed ~250×300 m sits well inside the</text>
    <text x="0" y="96" font-size="9" fill="#55606a">0.5 km EPZ (safety_criteria.yaml epz_radius).</text>
  </g>

  <!-- ===== Legend panel ===== -->
  <g transform="translate(880,95)">
    <rect x="0" y="0" width="260" height="540" fill="#fbfcfd" stroke="#c5ced6" stroke-width="1"/>
    <text x="14" y="24" font-size="14" font-weight="bold" fill="#1b2a36">Legend</text>

    <!-- island swatches -->
    <rect x="14" y="36" width="16" height="12" fill="#cfe8ff" stroke="#1b4965"/>
    <text x="36" y="46" font-size="11" fill="#1b2a36">Nuclear Island (Seismic Cat I)</text>
    <rect x="14" y="54" width="16" height="12" fill="#ffe8b3" stroke="#9a6700"/>
    <text x="36" y="64" font-size="11" fill="#1b2a36">Conventional Island (Cat II)</text>
    <rect x="14" y="72" width="16" height="12" fill="#d8f3dc" stroke="#2d6a4f"/>
    <text x="36" y="82" font-size="11" fill="#1b2a36">Industrial Island (non-safety)</text>
    <rect x="14" y="90" width="16" height="12" fill="#ffdede" stroke="#b3261e"/>
    <text x="36" y="100" font-size="11" fill="#1b2a36">H₂ hazard (NFPA 2 zoned)</text>

    <!-- piping -->
    <line x1="14" y1="120" x2="34" y2="120" stroke="#c0392b" stroke-width="2.5"/>
    <text x="40" y="124" font-size="11" fill="#1b2a36">Main steam [ASSUMED]</text>
    <line x1="14" y1="136" x2="34" y2="136" stroke="#2471a3" stroke-width="2.5"/>
    <text x="40" y="140" font-size="11" fill="#1b2a36">Feedwater [ASSUMED]</text>
    <line x1="14" y1="152" x2="34" y2="152" stroke="#7d3c98" stroke-width="2.5" stroke-dasharray="5 3"/>
    <text x="40" y="156" font-size="11" fill="#1b2a36">Process steam → TES</text>

    <!-- building key -->
    <text x="14" y="182" font-size="12" font-weight="bold" fill="#1b2a36">Buildings (footprint)</text>
    <g font-size="10.5" fill="#33414d">
      <text x="14" y="200">RXB  Reactor Bldg — 25×25</text>
      <text x="14" y="216">AB   Auxiliary Bldg — 25×20</text>
      <text x="14" y="232">CB   Control Bldg — 30×25</text>
      <text x="14" y="248">SFB  Spent Fuel Bldg — 20×15</text>
      <text x="14" y="264">DGB  Diesel Gen Bldg — 15×10</text>
      <text x="14" y="280">WMB  Waste Mgmt Bldg — 25×15</text>
      <text x="14" y="300">TB   Turbine Bldg — 30×20</text>
      <text x="14" y="316">EHB  Electrical/Switchyard</text>
      <text x="14" y="332">CTW  Cooling Tower — 30×30</text>
      <text x="14" y="348">WSB  Workshop/Service — 20×15</text>
      <text x="14" y="364">TES  Thermal Storage — 30×30 [ALISHER]</text>
      <text x="14" y="380">SOE  Electrolyser — 25×25 [ALISHER]</text>
      <text x="14" y="396">H₂S  H₂ Storage Yard — 20×30</text>
    </g>

    <!-- notes -->
    <text x="14" y="424" font-size="12" font-weight="bold" fill="#1b2a36">Notes</text>
    <g font-size="10" fill="#55606a">
      <text x="14" y="442">• Dashed boxes = island envelopes</text>
      <text x="14" y="457">  (incl. circulation + buffers).</text>
      <text x="14" y="472">• Dashed circle in RXB = containment</text>
      <text x="14" y="487">  Ø≈15 m; dot = RPV Ø2.44 m [rev_3].</text>
      <text x="14" y="502">• Piping line weights notional until</text>
      <text x="14" y="517">  Adilbek provides NPS (R6).</text>
      <text x="14" y="532">• R5 weights/steel: foundation eng.</text>
    </g>
  </g>
</svg>
